<svg width="134" height="32" viewBox="0 0 134 32" fill="none" xmlns="http://www.w3.org/2000/svg">
<path d="M58.2853 15.374V16.8475C58.2853 19.5766 57.4127 21.7861 55.6663 23.4774C53.9199 25.1687 51.6641 26.015 48.8999 26.015C45.953 26.015 43.5105 25.0561 41.5739 23.1369C39.636 21.2178 38.667 18.8755 38.667 16.1101C38.667 13.3447 39.6259 10.9724 41.5463 9.04322C43.4642 7.11532 45.8428 6.15137 48.6808 6.15137C50.4635 6.15137 52.0922 6.55698 53.5657 7.36569C54.8801 8.08803 55.933 9.02319 56.7267 10.1724C56.8832 10.399 56.8093 10.712 56.5702 10.8484L54.1716 12.2305C53.9625 12.3507 53.6946 12.2969 53.5544 12.1003C53.1087 11.4781 52.4991 10.9586 51.7229 10.5442C50.804 10.0535 49.7812 9.80812 48.6533 9.80812C46.8343 9.80812 45.3383 10.404 44.1653 11.5958C42.9923 12.7876 42.4051 14.2924 42.4051 16.1114C42.4051 17.9303 43.001 19.3988 44.1928 20.5731C45.3846 21.7461 46.962 22.3332 48.9274 22.3332C50.3821 22.3332 51.5877 22.0102 52.5429 21.3643C53.4981 20.7183 54.1478 19.832 54.4933 18.704H49.1816C48.9199 18.704 48.7084 18.4924 48.7084 18.2308V15.8485C48.7084 15.5868 48.9199 15.3752 49.1816 15.3752H58.2853V15.374Z" fill="white"/>
<path d="M60.7949 25.1599V6.18757C60.7949 5.92592 61.0065 5.71436 61.2681 5.71436H63.842C64.1037 5.71436 64.3152 5.92592 64.3152 6.18757V25.1599C64.3152 25.4215 64.1037 25.6331 63.842 25.6331H61.2681C61.0065 25.6331 60.7949 25.4215 60.7949 25.1599Z" fill="white"/>
<path d="M76.7729 11.99H79.5195C79.8475 11.99 80.0766 12.3168 79.9639 12.6247L75.2205 25.6543C74.5107 27.6023 73.5706 29.0181 72.3988 29.9007C71.3334 30.7032 70.0315 31.1038 68.4929 31.1013C68.2338 31.1013 68.0247 30.8872 68.0247 30.6281V28.2783C68.0247 28.0292 68.2175 27.8213 68.4666 27.8063C69.2077 27.7625 69.8099 27.5647 70.2756 27.2142C70.8302 26.7961 71.2721 26.1225 71.5988 25.1949L66.2833 12.646C66.1506 12.3343 66.3797 11.9888 66.719 11.9888H69.5282C69.7235 11.9888 69.8988 12.109 69.9689 12.2905L73.4091 21.1588L76.3197 12.3143C76.3835 12.1202 76.5651 11.9888 76.7691 11.9888L76.7729 11.99Z" fill="white"/>
<path d="M89.801 11.6084C91.6376 11.6084 93.2074 12.3044 94.5081 13.6953C95.8088 15.0874 96.4586 16.7924 96.4586 18.8117C96.4586 20.831 95.8076 22.5361 94.5081 23.9282C93.2074 25.3203 91.6388 26.0151 89.801 26.0151C87.9633 26.0151 86.4172 25.3516 85.3806 24.0233V30.617C85.3806 30.8786 85.1691 31.0902 84.9074 31.0902H82.3336C82.0719 31.0902 81.8604 30.8786 81.8604 30.617V12.4634C81.8604 12.2018 82.0719 11.9902 82.3336 11.9902H84.9074C85.1691 11.9902 85.3806 12.2018 85.3806 12.4634V13.6001C86.4172 12.2719 87.8907 11.6084 89.801 11.6084ZM86.4447 21.5822C87.1546 22.3007 88.0547 22.66 89.1463 22.66C90.238 22.66 91.1431 22.3007 91.8617 21.5822C92.5802 20.8636 92.9395 19.9409 92.9395 18.813C92.9395 17.685 92.5802 16.7624 91.8617 16.0438C91.1431 15.3252 90.238 14.966 89.1463 14.966C88.0547 14.966 87.1546 15.3252 86.4447 16.0438C85.7349 16.7624 85.3806 17.6863 85.3806 18.813C85.3806 19.9397 85.7349 20.8636 86.4447 21.5822Z" fill="white"/>
<path d="M106.526 11.6083C108.017 11.6083 109.25 12.1091 110.223 13.1093C111.196 14.1096 111.683 15.4929 111.683 17.2568V25.16C111.683 25.4216 111.471 25.6332 111.209 25.6332H108.636C108.374 25.6332 108.162 25.4216 108.162 25.16V17.6925C108.162 16.7836 107.917 16.0876 107.425 15.6056C106.934 15.1236 106.28 14.882 105.461 14.882C104.551 14.882 103.823 15.1637 103.278 15.7283C102.732 16.2929 102.459 17.1379 102.459 18.2659V25.16C102.459 25.4216 102.247 25.6332 101.986 25.6332H99.4117C99.15 25.6332 98.9385 25.4216 98.9385 25.16V7.00642C98.9385 6.74477 99.15 6.5332 99.4117 6.5332H101.986C102.247 6.5332 102.459 6.74477 102.459 7.00642V13.5187C103.314 12.2455 104.67 11.6083 106.525 11.6083H106.526Z" fill="white"/>
<path d="M116.431 10.3527C115.849 10.3527 115.344 10.1386 114.916 9.71174C114.488 9.28484 114.275 8.78034 114.275 8.19696C114.275 7.61358 114.489 7.10531 114.916 6.66841C115.343 6.2315 115.848 6.01367 116.431 6.01367C117.015 6.01367 117.545 6.2315 117.972 6.66841C118.399 7.10531 118.613 7.61483 118.613 8.19696C118.613 8.77908 118.399 9.28359 117.972 9.71174C117.544 10.1399 117.031 10.3527 116.431 10.3527ZM114.685 25.16V12.4634C114.685 12.2017 114.896 11.9902 115.158 11.9902H117.732C117.993 11.9902 118.205 12.2017 118.205 12.4634V25.16C118.205 25.4216 117.993 25.6332 117.732 25.6332H115.158C114.896 25.6332 114.685 25.4216 114.685 25.16Z" fill="white"/>
<path d="M127.918 26.0151C125.863 26.0151 124.148 25.3241 122.774 23.942C121.401 22.5599 120.714 20.8498 120.714 18.8118C120.714 16.7737 121.4 15.0649 122.774 13.6815C124.148 12.2995 125.862 11.6072 127.918 11.6072C129.247 11.6072 130.456 11.9252 131.548 12.5624C132.49 13.1119 133.235 13.8243 133.785 14.6993C133.927 14.9272 133.857 15.2276 133.626 15.3641L131.414 16.6598C131.195 16.7875 130.919 16.7174 130.777 16.5071C130.519 16.1252 130.179 15.8098 129.761 15.5631C129.207 15.2351 128.583 15.0724 127.892 15.0724C126.837 15.0724 125.964 15.4229 125.273 16.1227C124.582 16.8238 124.237 17.7189 124.237 18.8105C124.237 19.9022 124.582 20.771 125.273 21.4708C125.964 22.1718 126.838 22.5211 127.892 22.5211C128.602 22.5211 129.233 22.3621 129.789 22.0441C130.209 21.8025 130.549 21.4908 130.808 21.109C130.948 20.9012 131.222 20.8298 131.44 20.955L133.665 22.2269C133.899 22.3609 133.978 22.6663 133.83 22.8917C133.253 23.7705 132.493 24.4878 131.549 25.0462C130.457 25.6921 129.248 26.0151 127.92 26.0151H127.918Z" fill="white"/>
<path d="M31.3449 13.6466H15.9919C13.8996 13.6466 12.8519 16.1756 14.3319 17.6555L18.2627 21.5861C17.4335 21.9225 16.5127 22.0819 15.5477 22.0096C12.5745 21.7912 10.1768 19.3759 9.98349 16.4013C9.75478 12.8882 12.5362 9.9668 16.0007 9.9668C16.982 9.9668 17.9086 10.2014 18.7275 10.6175C19.5465 11.0336 20.4805 11.2932 21.4204 11.2932H21.6653C23.1792 11.2932 24.6312 10.6913 25.7024 9.62154L28.5148 6.8093C28.7125 6.61158 28.7287 6.29731 28.5561 6.07746C27.7829 5.1007 26.8976 4.21542 25.9208 3.44227C25.7009 3.26817 25.3866 3.28587 25.1889 3.48359L21.115 7.55736C20.6546 8.0177 19.964 8.15345 19.3635 7.90409C19.3576 7.90114 19.3502 7.89819 19.3443 7.89524C18.7438 7.64736 18.3527 7.0616 18.3527 6.41239V0.653633C18.3527 0.374769 18.1432 0.14017 17.8643 0.107709C17.2535 0.0368868 16.6308 0 16.0007 0C15.3707 0 14.748 0.0368868 14.1371 0.107709C13.8597 0.14017 13.6487 0.374769 13.6487 0.653633V6.41534C13.6487 7.06455 13.2577 7.65031 12.6572 7.89819C12.6513 7.90114 12.6439 7.90409 12.638 7.90704C12.0374 8.1564 11.3469 8.02066 10.8865 7.56031L6.81256 3.48654C6.61484 3.28882 6.30055 3.27259 6.08069 3.44522C5.10389 4.21837 4.21856 5.10365 3.44538 6.08041C3.27127 6.30026 3.28897 6.61453 3.4867 6.81225L7.56066 10.886C8.02103 11.3464 8.15678 12.0369 7.90741 12.6374C7.90446 12.6433 7.90151 12.6507 7.89856 12.6566C7.65067 13.2571 7.06488 13.6481 6.41564 13.6481H0.653663C0.374787 13.6481 0.140176 13.8576 0.107714 14.1365C0.0368885 14.7473 0 15.37 0 16C0 16.63 0.0368885 17.2527 0.107714 17.8635C0.140176 18.1409 0.374787 18.3519 0.653663 18.3519H6.41564C7.06488 18.3519 7.65067 18.7429 7.89856 19.3434C7.90151 19.3493 7.90446 19.3567 7.90741 19.3626C8.15678 19.9631 8.02103 20.6536 7.56066 21.114L3.4867 25.1878C3.28897 25.3855 3.27274 25.6997 3.44538 25.9196C4.21856 26.8963 5.10389 27.7816 6.08069 28.5548C6.30055 28.7289 6.61484 28.7112 6.81256 28.5135L10.8865 24.4397C11.3469 23.9793 12.0374 23.8436 12.638 24.093C12.6439 24.0959 12.6513 24.0989 12.6572 24.1018C13.2577 24.3497 13.6487 24.9354 13.6487 25.5847V31.3464C13.6487 31.6252 13.8583 31.8598 14.1371 31.8923C14.748 31.9631 15.3707 32 16.0007 32C16.6308 32 17.2535 31.9631 17.8643 31.8923C18.1417 31.8598 18.3527 31.6252 18.3527 31.3464V25.5847C18.3527 24.9354 18.7438 24.3497 19.3443 24.1018C19.3502 24.0989 19.3576 24.0959 19.3635 24.0944C19.964 23.8451 20.6546 23.9808 21.115 24.4412L25.1889 28.5149C25.3866 28.7127 25.7009 28.7289 25.9208 28.5562C26.8991 27.7831 27.7844 26.8978 28.5576 25.9196C28.7302 25.7012 28.7155 25.3884 28.5177 25.1907C27.3624 24.0325 23.6381 20.2995 23.6396 20.2966L21.6786 18.3534H31.3463C31.6252 18.3534 31.8598 18.1439 31.8923 17.865C31.9631 17.2541 32 16.6315 32 16.0015C32 15.3714 31.9631 14.7488 31.8923 14.138C31.8598 13.8606 31.6252 13.6496 31.3463 13.6496L31.3449 13.6466Z" fill="#FFC267"/>
</svg>
